<svg width="151" height="40" viewBox="0 0 151 40" fill="none" xmlns="http://www.w3.org/2000/svg">
<path d="M0.5 12C0.5 5.64873 5.64873 0.5 12 0.5H139C145.351 0.5 150.5 5.64873 150.5 12V28C150.5 34.3513 145.351 39.5 139 39.5H12C5.64873 39.5 0.5 34.3513 0.5 28V12Z" fill="#F0E3CA" stroke="#1B1A17"/>
<path d="M40.852 26.7136C39.872 26.7136 38.9853 26.4989 38.192 26.0696C37.408 25.6309 36.792 25.0336 36.344 24.2776C35.896 23.5122 35.672 22.6536 35.672 21.7016C35.672 20.7496 35.896 19.8956 36.344 19.1396C36.792 18.3742 37.4127 17.7769 38.206 17.3476C38.9993 16.9089 39.886 16.6896 40.866 16.6896C41.6313 16.6896 42.3313 16.8202 42.966 17.0816C43.6007 17.3336 44.142 17.7116 44.59 18.2156L43.68 19.0976C42.9427 18.3229 42.0233 17.9356 40.922 17.9356C40.194 17.9356 39.536 18.0989 38.948 18.4256C38.36 18.7522 37.898 19.2049 37.562 19.7836C37.2353 20.3529 37.072 20.9922 37.072 21.7016C37.072 22.4109 37.2353 23.0549 37.562 23.6336C37.898 24.2029 38.36 24.6509 38.948 24.9776C39.536 25.3042 40.194 25.4676 40.922 25.4676C42.014 25.4676 42.9333 25.0756 43.68 24.2916L44.59 25.1736C44.142 25.6776 43.596 26.0602 42.952 26.3216C42.3173 26.5829 41.6173 26.7136 40.852 26.7136ZM49.4647 26.6856C48.7274 26.6856 48.0647 26.5222 47.4767 26.1956C46.8887 25.8689 46.4267 25.4209 46.0907 24.8516C45.7641 24.2729 45.6007 23.6196 45.6007 22.8916C45.6007 22.1636 45.7641 21.5149 46.0907 20.9456C46.4267 20.3669 46.8887 19.9189 47.4767 19.6016C48.0647 19.2749 48.7274 19.1116 49.4647 19.1116C50.2021 19.1116 50.8601 19.2749 51.4387 19.6016C52.0267 19.9189 52.4841 20.3669 52.8107 20.9456C53.1467 21.5149 53.3147 22.1636 53.3147 22.8916C53.3147 23.6196 53.1467 24.2729 52.8107 24.8516C52.4841 25.4209 52.0267 25.8689 51.4387 26.1956C50.8601 26.5222 50.2021 26.6856 49.4647 26.6856ZM49.4647 25.5096C49.9407 25.5096 50.3654 25.4022 50.7387 25.1876C51.1214 24.9636 51.4201 24.6556 51.6347 24.2636C51.8494 23.8622 51.9567 23.4049 51.9567 22.8916C51.9567 22.3782 51.8494 21.9256 51.6347 21.5336C51.4201 21.1322 51.1214 20.8242 50.7387 20.6096C50.3654 20.3949 49.9407 20.2876 49.4647 20.2876C48.9887 20.2876 48.5594 20.3949 48.1767 20.6096C47.8034 20.8242 47.5047 21.1322 47.2807 21.5336C47.0661 21.9256 46.9587 22.3782 46.9587 22.8916C46.9587 23.4049 47.0661 23.8622 47.2807 24.2636C47.5047 24.6556 47.8034 24.9636 48.1767 25.1876C48.5594 25.4022 48.9887 25.5096 49.4647 25.5096ZM55.3835 19.1816H56.7275V26.6016H55.3835V19.1816ZM56.0555 17.7536C55.7941 17.7536 55.5748 17.6696 55.3975 17.5016C55.2295 17.3336 55.1455 17.1282 55.1455 16.8856C55.1455 16.6429 55.2295 16.4376 55.3975 16.2696C55.5748 16.0922 55.7941 16.0036 56.0555 16.0036C56.3168 16.0036 56.5315 16.0876 56.6995 16.2556C56.8768 16.4142 56.9655 16.6149 56.9655 16.8576C56.9655 17.1096 56.8768 17.3242 56.6995 17.5016C56.5315 17.6696 56.3168 17.7536 56.0555 17.7536ZM63.4656 19.1116C64.4083 19.1116 65.1549 19.3869 65.7056 19.9376C66.2656 20.4789 66.5456 21.2769 66.5456 22.3316V26.6016H65.2016V22.4856C65.2016 21.7669 65.0289 21.2256 64.6836 20.8616C64.3383 20.4976 63.8436 20.3156 63.1996 20.3156C62.4716 20.3156 61.8976 20.5302 61.4776 20.9596C61.0576 21.3796 60.8476 21.9862 60.8476 22.7796V26.6016H59.5036V19.1816H60.7916V20.3016C61.0623 19.9189 61.4263 19.6249 61.8836 19.4196C62.3503 19.2142 62.8776 19.1116 63.4656 19.1116ZM71.3709 26.6856C70.7642 26.6856 70.1809 26.6062 69.6209 26.4476C69.0609 26.2796 68.6222 26.0696 68.3049 25.8176L68.8649 24.7536C69.1916 24.9869 69.5882 25.1736 70.0549 25.3136C70.5216 25.4536 70.9929 25.5236 71.4689 25.5236C72.6449 25.5236 73.2329 25.1876 73.2329 24.5156C73.2329 24.2916 73.1536 24.1142 72.9949 23.9836C72.8362 23.8529 72.6356 23.7596 72.3929 23.7036C72.1596 23.6382 71.8236 23.5682 71.3849 23.4936C70.7876 23.4002 70.2976 23.2929 69.9149 23.1716C69.5416 23.0502 69.2196 22.8449 68.9489 22.5556C68.6782 22.2662 68.5429 21.8602 68.5429 21.3376C68.5429 20.6656 68.8229 20.1289 69.3829 19.7276C69.9429 19.3169 70.6942 19.1116 71.6369 19.1116C72.1316 19.1116 72.6262 19.1722 73.1209 19.2936C73.6156 19.4149 74.0216 19.5782 74.3389 19.7836L73.7649 20.8476C73.1582 20.4556 72.4442 20.2596 71.6229 20.2596C71.0536 20.2596 70.6196 20.3529 70.3209 20.5396C70.0222 20.7262 69.8729 20.9736 69.8729 21.2816C69.8729 21.5242 69.9569 21.7156 70.1249 21.8556C70.2929 21.9956 70.4982 22.0982 70.7409 22.1636C70.9929 22.2289 71.3429 22.3036 71.7909 22.3876C72.3882 22.4902 72.8689 22.6022 73.2329 22.7236C73.6062 22.8356 73.9236 23.0316 74.1849 23.3116C74.4462 23.5916 74.5769 23.9836 74.5769 24.4876C74.5769 25.1596 74.2876 25.6962 73.7089 26.0976C73.1396 26.4896 72.3602 26.6856 71.3709 26.6856ZM134.295 26.6856C134.033 26.6856 133.809 26.5969 133.623 26.4196C133.436 26.2329 133.343 25.9996 133.343 25.7196C133.343 25.4489 133.436 25.2249 133.623 25.0476C133.809 24.8609 134.033 24.7676 134.295 24.7676C134.556 24.7676 134.775 24.8562 134.953 25.0336C135.13 25.2109 135.219 25.4396 135.219 25.7196C135.219 25.9996 135.125 26.2329 134.939 26.4196C134.761 26.5969 134.547 26.6856 134.295 26.6856Z" fill="#FF8303"/>
<path d="M85.7486 26.6016L85.7346 19.4616L82.1926 25.4116H81.5486L78.0066 19.5036V26.6016H76.6626V16.8016H77.8106L81.8986 23.6896L85.9306 16.8016H87.0786L87.0926 26.6016H85.7486ZM96.9637 19.1816V26.6016H95.6897V25.4816C95.419 25.8642 95.0597 26.1629 94.6117 26.3776C94.173 26.5829 93.6923 26.6856 93.1697 26.6856C92.1803 26.6856 91.401 26.4149 90.8317 25.8736C90.2623 25.3229 89.9777 24.5156 89.9777 23.4516V19.1816H91.3217V23.2976C91.3217 24.0162 91.4943 24.5622 91.8397 24.9356C92.185 25.2996 92.6797 25.4816 93.3237 25.4816C94.033 25.4816 94.593 25.2669 95.0037 24.8376C95.4143 24.4082 95.6197 23.8016 95.6197 23.0176V19.1816H96.9637ZM106.732 16.2136V26.6016H105.444V25.4256C105.146 25.8362 104.768 26.1489 104.31 26.3636C103.853 26.5782 103.349 26.6856 102.798 26.6856C102.08 26.6856 101.436 26.5269 100.866 26.2096C100.297 25.8922 99.8489 25.4489 99.5223 24.8796C99.2049 24.3009 99.0463 23.6382 99.0463 22.8916C99.0463 22.1449 99.2049 21.4869 99.5223 20.9176C99.8489 20.3482 100.297 19.9049 100.866 19.5876C101.436 19.2702 102.08 19.1116 102.798 19.1116C103.33 19.1116 103.82 19.2142 104.268 19.4196C104.716 19.6156 105.09 19.9096 105.388 20.3016V16.2136H106.732ZM102.91 25.5096C103.377 25.5096 103.802 25.4022 104.184 25.1876C104.567 24.9636 104.866 24.6556 105.08 24.2636C105.295 23.8622 105.402 23.4049 105.402 22.8916C105.402 22.3782 105.295 21.9256 105.08 21.5336C104.866 21.1322 104.567 20.8242 104.184 20.6096C103.802 20.3949 103.377 20.2876 102.91 20.2876C102.434 20.2876 102.005 20.3949 101.622 20.6096C101.249 20.8242 100.95 21.1322 100.726 21.5336C100.512 21.9256 100.404 22.3782 100.404 22.8916C100.404 23.4049 100.512 23.8622 100.726 24.2636C100.95 24.6556 101.249 24.9636 101.622 25.1876C102.005 25.4022 102.434 25.5096 102.91 25.5096ZM116.485 16.2136V26.6016H115.197V25.4256C114.899 25.8362 114.521 26.1489 114.063 26.3636C113.606 26.5782 113.102 26.6856 112.551 26.6856C111.833 26.6856 111.189 26.5269 110.619 26.2096C110.05 25.8922 109.602 25.4489 109.275 24.8796C108.958 24.3009 108.799 23.6382 108.799 22.8916C108.799 22.1449 108.958 21.4869 109.275 20.9176C109.602 20.3482 110.05 19.9049 110.619 19.5876C111.189 19.2702 111.833 19.1116 112.551 19.1116C113.083 19.1116 113.573 19.2142 114.021 19.4196C114.469 19.6156 114.843 19.9096 115.141 20.3016V16.2136H116.485ZM112.663 25.5096C113.13 25.5096 113.555 25.4022 113.937 25.1876C114.32 24.9636 114.619 24.6556 114.833 24.2636C115.048 23.8622 115.155 23.4049 115.155 22.8916C115.155 22.3782 115.048 21.9256 114.833 21.5336C114.619 21.1322 114.32 20.8242 113.937 20.6096C113.555 20.3949 113.13 20.2876 112.663 20.2876C112.187 20.2876 111.758 20.3949 111.375 20.6096C111.002 20.8242 110.703 21.1322 110.479 21.5336C110.265 21.9256 110.157 22.3782 110.157 22.8916C110.157 23.4049 110.265 23.8622 110.479 24.2636C110.703 24.6556 111.002 24.9636 111.375 25.1876C111.758 25.4022 112.187 25.5096 112.663 25.5096ZM125.944 22.9336C125.944 23.0362 125.935 23.1716 125.916 23.3396H119.896C119.98 23.9929 120.265 24.5202 120.75 24.9216C121.245 25.3136 121.856 25.5096 122.584 25.5096C123.471 25.5096 124.185 25.2109 124.726 24.6136L125.468 25.4816C125.132 25.8736 124.712 26.1722 124.208 26.3776C123.714 26.5829 123.158 26.6856 122.542 26.6856C121.758 26.6856 121.063 26.5269 120.456 26.2096C119.85 25.8829 119.378 25.4302 119.042 24.8516C118.716 24.2729 118.552 23.6196 118.552 22.8916C118.552 22.1729 118.711 21.5242 119.028 20.9456C119.355 20.3669 119.798 19.9189 120.358 19.6016C120.928 19.2749 121.567 19.1116 122.276 19.1116C122.986 19.1116 123.616 19.2749 124.166 19.6016C124.726 19.9189 125.16 20.3669 125.468 20.9456C125.786 21.5242 125.944 22.1869 125.944 22.9336ZM122.276 20.2456C121.632 20.2456 121.091 20.4416 120.652 20.8336C120.223 21.2256 119.971 21.7389 119.896 22.3736H124.656C124.582 21.7482 124.325 21.2396 123.886 20.8476C123.457 20.4462 122.92 20.2456 122.276 20.2456ZM129.308 20.4276C129.542 19.9982 129.887 19.6716 130.344 19.4476C130.802 19.2236 131.357 19.1116 132.01 19.1116V20.4136C131.936 20.4042 131.833 20.3996 131.702 20.3996C130.974 20.3996 130.4 20.6189 129.98 21.0576C129.57 21.4869 129.364 22.1029 129.364 22.9056V26.6016H128.02V19.1816H129.308V20.4276Z" fill="#1B1A17"/>
<g clip-path="url(#clip0_6:28)">
<path fill-rule="evenodd" clip-rule="evenodd" d="M25.625 26.1875C26.5533 26.1875 27.4435 25.8451 28.0999 25.2356C28.7563 24.6261 29.125 23.7995 29.125 22.9375C29.125 22.0755 28.7563 21.2489 28.0999 20.6394C27.4435 20.0299 26.5533 19.6875 25.625 19.6875C24.6967 19.6875 23.8065 20.0299 23.1501 20.6394C22.4937 21.2489 22.125 22.0755 22.125 22.9375C22.125 23.7995 22.4937 24.6261 23.1501 25.2356C23.8065 25.8451 24.6967 26.1875 25.625 26.1875ZM30 22.9375C30 24.0149 29.5391 25.0483 28.7186 25.8101C27.8981 26.572 26.7853 27 25.625 27C24.4647 27 23.3519 26.572 22.5314 25.8101C21.7109 25.0483 21.25 24.0149 21.25 22.9375C21.25 21.8601 21.7109 20.8267 22.5314 20.0649C23.3519 19.303 24.4647 18.875 25.625 18.875C26.7853 18.875 27.8981 19.303 28.7186 20.0649C29.5391 20.8267 30 21.8601 30 22.9375Z" fill="#FF8303"/>
<path d="M24.2587 23.7045C24.2998 24.1888 24.7119 24.5658 25.4513 24.6113V24.9688H25.7794V24.6088C26.5451 24.5593 26.9922 24.179 26.9922 23.6281C26.9922 23.126 26.6509 22.8676 26.0384 22.7344L25.7794 22.6775V21.7025C26.1084 21.7374 26.3167 21.904 26.3666 22.1348H26.9423C26.9012 21.6676 26.4698 21.3028 25.7794 21.2629V20.9062H25.4513V21.2719C24.7977 21.3312 24.3532 21.696 24.3532 22.2127C24.3532 22.6694 24.6839 22.9602 25.2343 23.0789L25.4513 23.1284V24.1619C25.1153 24.1148 24.8922 23.9426 24.8423 23.7045H24.2578H24.2587ZM25.4487 22.6044C25.1258 22.5353 24.9508 22.3931 24.9508 22.1802C24.9508 21.9414 25.1398 21.7626 25.4513 21.7106V22.6044H25.4487ZM25.8267 23.2105C26.2196 23.295 26.3998 23.4315 26.3998 23.6728C26.3998 23.9482 26.1749 24.1367 25.7794 24.1717V23.2008L25.8267 23.2105Z" fill="#FF8303"/>
<path d="M16.875 14C16.6429 14 16.4204 14.0856 16.2563 14.238C16.0922 14.3903 16 14.597 16 14.8125V21.3125C16 21.528 16.0922 21.7347 16.2563 21.887C16.4204 22.0394 16.6429 22.125 16.875 22.125H20.4476C20.4984 21.8455 20.5745 21.5741 20.6734 21.3125H18.625C18.625 20.8815 18.4406 20.4682 18.1124 20.1635C17.7842 19.8587 17.3391 19.6875 16.875 19.6875V16.4375C17.3391 16.4375 17.7842 16.2663 18.1124 15.9615C18.4406 15.6568 18.625 15.2435 18.625 14.8125H27.375C27.375 15.2435 27.5594 15.6568 27.8876 15.9615C28.2158 16.2663 28.6609 16.4375 29.125 16.4375V19.304C29.4575 19.5802 29.7524 19.8955 30 20.2416V14.8125C30 14.597 29.9078 14.3903 29.7437 14.238C29.5796 14.0856 29.3571 14 29.125 14H16.875Z" fill="black"/>
<path d="M24.7483 18.129L24.75 18.0615C24.7498 17.7817 24.6718 17.5067 24.5236 17.263C24.3753 17.0194 24.1618 16.8155 23.9037 16.671C23.6457 16.5264 23.3518 16.4463 23.0506 16.4382C22.7493 16.4301 22.451 16.4944 22.1843 16.6248C21.9177 16.7552 21.6919 16.9474 21.5287 17.1827C21.3655 17.4179 21.2706 17.6883 21.253 17.9677C21.2354 18.247 21.2958 18.5259 21.4283 18.7772C21.5609 19.0285 21.7611 19.2438 22.0095 19.4022C22.7653 18.7337 23.719 18.2903 24.7483 18.129Z" fill="black"/>
</g>
<defs>
<clipPath id="clip0_6:28">
<rect width="14" height="13" fill="white" transform="translate(16 14)"/>
</clipPath>
</defs>
</svg>
