<svg width="28" height="22" viewBox="0 0 28 22" fill="none" xmlns="http://www.w3.org/2000/svg">
<path d="M2.32166 12.8047C1.95962 12.8043 1.6073 12.9336 1.31799 13.173C1.02869 13.4124 0.818119 13.749 0.718136 14.1317C0.618153 14.5145 0.634193 14.9226 0.76383 15.2945C0.893466 15.6663 1.12965 15.9816 1.43666 16.1927L5.91666 21.1207C6.07151 21.2909 6.25532 21.4259 6.4576 21.518C6.65988 21.61 6.87667 21.6574 7.09558 21.6573C7.3145 21.6572 7.53125 21.6097 7.73347 21.5175C7.9357 21.4252 8.11942 21.2901 8.27416 21.1198C8.4289 20.9494 8.55163 20.7472 8.63533 20.5247C8.71904 20.3022 8.76208 20.0638 8.762 19.823C8.76192 19.5822 8.71873 19.3437 8.63488 19.1213C8.55103 18.8988 8.42818 18.6967 8.27333 18.5265L6.40499 16.4732H18.9883C19.4304 16.4732 19.8543 16.28 20.1668 15.9362C20.4794 15.5924 20.655 15.1261 20.655 14.6399C20.655 14.1536 20.4794 13.6873 20.1668 13.3435C19.8543 12.9997 19.4304 12.8065 18.9883 12.8065H2.32166V12.8047Z" fill="#FF8303"/>
<path d="M25.6781 9.19637C26.0401 9.19677 26.3924 9.06748 26.6817 8.82806C26.971 8.58864 27.1816 8.2521 27.2816 7.86934C27.3816 7.48658 27.3655 7.07842 27.2359 6.70658C27.1063 6.33474 26.8701 6.01944 26.5631 5.80837L22.0831 0.880372C21.7703 0.536607 21.3463 0.343578 20.9041 0.34375C20.462 0.343922 20.0381 0.537281 19.7256 0.881289C19.413 1.2253 19.2376 1.69177 19.2377 2.1781C19.2379 2.66443 19.4137 3.13077 19.7264 3.47454L21.5947 5.52787H9.01139C8.56937 5.52787 8.14544 5.72102 7.83288 6.06484C7.52032 6.40866 7.34473 6.87498 7.34473 7.36121C7.34473 7.84744 7.52032 8.31375 7.83288 8.65757C8.14544 9.00138 8.56937 9.19454 9.01139 9.19454H25.6781V9.19637Z" fill="#FF8303"/>
</svg>
